<svg width="43" height="29" viewBox="0 0 43 29" fill="none" xmlns="http://www.w3.org/2000/svg">
<g id="cloud_medium_eve">
<path id="Intersect" fill-rule="evenodd" clip-rule="evenodd" d="M29.1771 27C33.9611 23.8816 37 19.215 37 14C37 12.6222 36.7879 11.2828 36.3875 10L8.99997 10V27H29.1771Z" fill="#B29CC4"/>
<path id="Union" fill-rule="evenodd" clip-rule="evenodd" d="M15.9196 24.6284C15.7386 24.4879 15.5611 24.3426 15.3874 24.1927C13.7569 25.9265 11.4972 27 9 27C4.02944 27 0 22.7467 0 17.5C0 12.2533 4.02944 8 9 8C9.91812 8 10.8041 8.14512 11.6386 8.4148C13.6258 3.4733 18.3287 0 23.8139 0C28.0898 0 31.8903 2.11056 34.2996 5.3819C34.9868 5.13471 35.7277 5 36.5 5C40.0899 5 43 7.91015 43 11.5C43 13.7317 41.8753 15.7007 40.1618 16.8711C40.7039 17.8457 41 18.8998 41 20C41 24.9706 34.9558 29 27.5 29C22.583 29 18.28 27.2476 15.9196 24.6284Z" fill="#B29CC4"/>
</g>
</svg>
