<svg width="33" height="21" viewBox="0 0 33 21" fill="none" xmlns="http://www.w3.org/2000/svg">
<g id="cloud_small">
<path id="Intersect" fill-rule="evenodd" clip-rule="evenodd" d="M25.6547 21C29.6654 19.0118 32.25 15.8879 32.25 12.375C32.25 11.4699 32.0784 10.5907 31.7551 9.75H7.5V21H25.6547Z" fill="url(#paint0_linear)"/>
<path id="Union" fill-rule="evenodd" clip-rule="evenodd" d="M14.0894 16.889C15.9402 19.3887 18.8512 21 22.125 21C27.7169 21 32.25 16.299 32.25 10.5C32.25 4.70101 27.7169 0 22.125 0C17.627 0 13.814 3.04173 12.4944 7.24993C11.1682 6.0061 9.41817 5.25 7.5 5.25C3.35786 5.25 0 8.77576 0 13.125C0 17.4742 3.35786 21 7.5 21C10.3437 21 12.8178 19.3382 14.0894 16.889Z" fill="url(#paint1_linear)"/>
</g>
<defs>
<linearGradient id="paint0_linear" x1="7.55763" y1="21" x2="19.9038" y2="21" gradientUnits="userSpaceOnUse">
<stop stop-color="#F3E779"/>
<stop offset="1" stop-color="#ECECEC"/>
</linearGradient>
<linearGradient id="paint1_linear" x1="0.0750991" y1="21" x2="16.1625" y2="21" gradientUnits="userSpaceOnUse">
<stop stop-color="#F3E779"/>
<stop offset="1" stop-color="#ECECEC"/>
</linearGradient>
</defs>
</svg>
