<svg width="50" height="44" viewBox="0 0 50 44" fill="none" xmlns="http://www.w3.org/2000/svg">
<g id="moon">
<g id="moon_2">
<circle id="moon_body" cx="22.4091" cy="22.4091" r="17.1017" fill="#ECECEC"/>
<path id="Subtract" d="M23.8834 43.3439C23.8834 42.9626 22.6365 43.3439 20.9348 43.3439C8.5177 43.3439 1.74347 34.8189 0.589714 22.704C0.52156 21.9883 0 22.6407 0 23.36C0 34.7592 9.24083 44 20.64 44C23.5561 44 23.8834 43.6388 23.8834 43.3439Z" fill="#ECECEC"/>
<path id="Subtract_2" d="M24.9931 0.61819C24.4827 0.91358 24.5453 1.41424 26.1895 1.85294C38.1869 5.0542 45.6872 14.6581 43.6786 26.661C43.5266 27.2308 44.3813 27.4588 44.6093 26.6041C47.5481 15.5903 38.7229 3.67137 27.7091 0.732559C25.9998 0.276457 25.354 0.409313 24.9931 0.61819Z" fill="#ECECEC"/>
</g>
<g id="moon_surface">
<circle id="Ellipse 8" cx="11" cy="22" r="1" fill="#5E5E5E"/>
<ellipse id="Ellipse 9" cx="16.5" cy="18" rx="3.5" ry="3" fill="#5E5E5E"/>
<ellipse id="Ellipse 10" cx="16" cy="24.5" rx="2" ry="1.5" fill="#5E5E5E"/>
</g>
</g>
</svg>
