<svg width="97" height="51" viewBox="0 0 97 51" fill="none" xmlns="http://www.w3.org/2000/svg">
<g id="mount_big">
<path id="Intersect" fill-rule="evenodd" clip-rule="evenodd" d="M75.1598 24.1879C72.2783 26.9234 67.4541 28.759 61.1012 24.4275C52.3012 18.4275 40.7679 19.5942 36.1012 20.9275C32.939 21.7407 28.18 22.4069 24.7396 21.572L45.8163 1.12876C47.3679 -0.37625 49.8345 -0.376256 51.3862 1.12876L75.1598 24.1879Z" fill="#EEEEEE"/>
<path id="Subtract" fill-rule="evenodd" clip-rule="evenodd" d="M75.1598 24.1879C72.2783 26.9234 67.4541 28.759 61.1012 24.4275C52.3012 18.4275 40.7679 19.5942 36.1012 20.9275C32.939 21.7407 28.18 22.4069 24.7396 21.572L1.55875 44.0563C-1.02042 46.5579 0.750603 50.9275 4.34372 50.9275H92.8587C96.4518 50.9275 98.2228 46.5579 95.6437 44.0563L75.1598 24.1879Z" fill="#BF7D3F"/>
</g>
</svg>
