<svg width="60" height="39" viewBox="0 0 60 39" fill="none" xmlns="http://www.w3.org/2000/svg">
<g id="mount_small">
<path id="Intersect" fill-rule="evenodd" clip-rule="evenodd" d="M45.9843 18.2989C41.2196 15.8511 30.1855 11.7531 24.1671 14.9435C21.1745 16.5299 18.0654 16.2797 15.4061 15.2335L26.5454 2.04539C28.1434 0.15349 31.0591 0.15349 32.657 2.04539L45.7432 17.5385L45.9843 18.2989Z" fill="#EEEEEE"/>
<path id="Subtract" fill-rule="evenodd" clip-rule="evenodd" d="M45.8027 18.6471C41.1227 16.041 30.2322 11.5754 24.1102 14.5623C21.2457 15.9598 18.3327 15.7286 15.8137 14.751L0.951858 32.3464C-1.2445 34.9468 0.603889 38.9275 4.00768 38.9275H55.1947C58.5985 38.9275 60.4469 34.9468 58.2506 32.3464L45.3666 17.0926L45.8027 18.6471Z" fill="#9A5618"/>
</g>
</svg>
