<svg width="103" height="91" viewBox="0 0 103 91" fill="none" xmlns="http://www.w3.org/2000/svg">
<g id="stars">
<path id="star" d="M9.36585 30L8.34146 40.9286L0 41.7143L8.34146 42.4286L9.36585 52L10.2439 42.4286L18 41.7143L10.2439 40.9286L9.36585 30Z" fill="#FFE587"/>
<path id="star_2" d="M36.3659 65L35.3415 75.9286L27 76.7143L35.3415 77.4286L36.3659 87L37.2439 77.4286L45 76.7143L37.2439 75.9286L36.3659 65Z" fill="#FFE587"/>
<path id="star_3" d="M83.3659 69L82.3415 79.9286L74 80.7143L82.3415 81.4286L83.3659 91L84.2439 81.4286L92 80.7143L84.2439 79.9286L83.3659 69Z" fill="#FFE587"/>
<path id="star_4" d="M94.3659 0L93.3415 10.9286L85 11.7143L93.3415 12.4286L94.3659 22L95.2439 12.4286L103 11.7143L95.2439 10.9286L94.3659 0Z" fill="#FFE587"/>
</g>
</svg>
