<svg width="80" height="80" viewBox="0 0 80 80" fill="none" xmlns="http://www.w3.org/2000/svg">
<g id="sun">
<circle id="sun_body" cx="40" cy="40" r="19.0654" fill="#FCFF77"/>
<path id="Polygon 1" d="M38.1007 5.75696C38.7048 3.92577 41.2952 3.92577 41.8993 5.75696L44.3134 13.0743C44.7403 14.3683 43.7766 15.7009 42.4141 15.7009H37.5859C36.2234 15.7009 35.2597 14.3683 35.6866 13.0743L38.1007 5.75696Z" fill="#FFF736"/>
<path id="Polygon 5" d="M62.8705 14.4435C64.5925 13.5758 66.4242 15.4075 65.5565 17.1295L62.0894 24.0107C61.4763 25.2275 59.8525 25.4884 58.8891 24.525L55.475 21.1109C54.5116 20.1475 54.7725 18.5237 55.9893 17.9106L62.8705 14.4435Z" fill="#FFF736"/>
<path id="Polygon 3" d="M5.75696 41.8993C3.92577 41.2952 3.92577 38.7048 5.75696 38.1007L13.0743 35.6866C14.3683 35.2597 15.7009 36.2234 15.7009 37.5859L15.7009 42.4141C15.7009 43.7766 14.3683 44.7403 13.0743 44.3134L5.75696 41.8993Z" fill="#FFF736"/>
<path id="Polygon 6" d="M14.4435 17.1295C13.5758 15.4075 15.4075 13.5758 17.1295 14.4435L24.0107 17.9106C25.2275 18.5237 25.4884 20.1475 24.525 21.1109L21.1109 24.525C20.1475 25.4884 18.5237 25.2275 17.9106 24.0107L14.4435 17.1295Z" fill="#FFF736"/>
<path id="Polygon 2" d="M38.1007 74.243C38.7048 76.0742 41.2952 76.0742 41.8993 74.243L44.3134 66.9257C44.7403 65.6317 43.7766 64.2991 42.4141 64.2991H37.5859C36.2234 64.2991 35.2597 65.6317 35.6866 66.9257L38.1007 74.243Z" fill="#FFF736"/>
<path id="Polygon 7" d="M14.4435 62.8705C13.5758 64.5925 15.4075 66.4241 17.1295 65.5565L24.0107 62.0894C25.2275 61.4763 25.4884 59.8525 24.525 58.8891L21.1109 55.475C20.1475 54.5115 18.5237 54.7725 17.9106 55.9893L14.4435 62.8705Z" fill="#FFF736"/>
<path id="Polygon 4" d="M74.243 41.8993C76.0742 41.2952 76.0742 38.7048 74.243 38.1007L66.9257 35.6866C65.6317 35.2597 64.2991 36.2234 64.2991 37.5859L64.2991 42.4141C64.2991 43.7766 65.6317 44.7403 66.9257 44.3134L74.243 41.8993Z" fill="#FFF736"/>
<path id="Polygon 8" d="M62.8705 65.5565C64.5925 66.4242 66.4242 64.5925 65.5565 62.8705L62.0894 55.9893C61.4763 54.7725 59.8525 54.5116 58.8891 55.475L55.475 58.8891C54.5116 59.8525 54.7725 61.4763 55.9893 62.0894L62.8705 65.5565Z" fill="#FFF736"/>
</g>
</svg>
